<?xml version="1.0" encoding="UTF-8"?>
<!DOCTYPE svg PUBLIC "-//W3C//DTD SVG 1.1//EN" "http://www.w3.org/Graphics/SVG/1.1/DTD/svg11.dtd">
<svg xmlns="http://www.w3.org/2000/svg" version="1.1" width="2400px" height="811px" style="shape-rendering:geometricPrecision; text-rendering:geometricPrecision; image-rendering:optimizeQuality; fill-rule:evenodd; clip-rule:evenodd" xmlns:xlink="http://www.w3.org/1999/xlink">
<g><path style="opacity:0.994" fill="#4285f4" d="M 375.5,35.5 C 453.622,33.3599 520.622,59.1932 576.5,113C 558.333,131.167 540.167,149.333 522,167.5C 471.496,121.12 412.329,104.286 344.5,117C 274.764,133.739 226.264,175.239 199,241.5C 177.359,303.113 182.359,362.447 214,419.5C 254.013,482.272 311.513,514.605 386.5,516.5C 445.805,517.253 494.971,495.586 534,451.5C 551.777,426.688 562.611,399.021 566.5,368.5C 505.837,367.5 445.17,367.167 384.5,367.5C 384.5,341.833 384.5,316.167 384.5,290.5C 470.167,290.333 555.834,290.5 641.5,291C 650.878,348.145 644.044,403.312 621,456.5C 586.015,524.136 531.515,567.302 457.5,586C 357.673,607.628 269.339,585.294 192.5,519C 114.263,442.923 87.0961,351.423 111,244.5C 138.951,152.215 197.784,88.382 287.5,53C 316.101,42.7376 345.435,36.9043 375.5,35.5 Z"/></g>
<g><path style="opacity:0.997" fill="#33a752" d="M 1842.5,56.5 C 1868.17,56.5 1893.83,56.5 1919.5,56.5C 1919.5,231.833 1919.5,407.167 1919.5,582.5C 1893.83,582.5 1868.17,582.5 1842.5,582.5C 1842.5,407.167 1842.5,231.833 1842.5,56.5 Z"/></g>
<g><path style="opacity:0.989" fill="#ea4334" d="M 837.5,234.5 C 901.68,229.93 954.846,251.597 997,299.5C 1034.45,349.835 1045.12,405.502 1029,466.5C 1009.9,526.598 970.402,566.431 910.5,586C 848.985,602.894 792.652,592.561 741.5,555C 686.904,507.223 666.071,447.39 679,375.5C 695.159,308.341 735.993,263.841 801.5,242C 813.461,238.642 825.461,236.142 837.5,234.5 Z M 850.5,305.5 C 899.003,306.649 932.17,329.649 950,374.5C 963.506,417.821 955.839,456.821 927,491.5C 894.966,522.258 858.132,529.758 816.5,514C 775.922,493.045 755.589,459.545 755.5,413.5C 756.247,362.62 780.247,328.12 827.5,310C 835.197,307.893 842.863,306.393 850.5,305.5 Z"/></g>
<g><path style="opacity:0.991" fill="#fbbb04" d="M 1226.5,234.5 C 1287.69,230.201 1339.19,250.201 1381,294.5C 1421.14,344.518 1433.47,400.851 1418,463.5C 1398.33,527.835 1356.17,569.335 1291.5,588C 1228.58,602.516 1172.24,589.516 1122.5,549C 1075.19,503.417 1056.36,447.917 1066,382.5C 1079.86,311.645 1121.02,264.812 1189.5,242C 1201.79,238.622 1214.13,236.122 1226.5,234.5 Z M 1238.5,305.5 C 1295.99,307.818 1330.82,337.151 1343,393.5C 1349.58,437.101 1336.42,473.267 1303.5,502C 1263.83,529.333 1224.17,529.333 1184.5,502C 1157.12,479.222 1143.45,449.889 1143.5,414C 1143.76,372.126 1161.43,340.126 1196.5,318C 1209.87,311.262 1223.87,307.096 1238.5,305.5 Z"/></g>
<g><path style="opacity:0.995" fill="#4285f4" d="M 1608.5,234.5 C 1642.34,231.543 1673.34,239.376 1701.5,258C 1707.7,263.372 1713.7,268.872 1719.5,274.5C 1720.5,264.856 1720.83,255.19 1720.5,245.5C 1745.83,245.5 1771.17,245.5 1796.5,245.5C 1796.67,358.5 1796.5,471.5 1796,584.5C 1795.01,628.142 1781.34,667.142 1755,701.5C 1724.47,734.363 1686.64,751.863 1641.5,754C 1568.56,757.954 1513.06,729.12 1475,667.5C 1472.33,662.167 1469.67,656.833 1467,651.5C 1466.22,650.056 1466.39,648.723 1467.5,647.5C 1489.72,637.891 1512.05,628.557 1534.5,619.5C 1562.31,674.94 1605.97,693.774 1665.5,676C 1694.82,662.925 1712.32,640.425 1718,608.5C 1720.58,590.233 1721.08,571.9 1719.5,553.5C 1689.02,584.387 1652.02,597.554 1608.5,593C 1543.6,583.415 1496.77,549.249 1468,490.5C 1439.27,419.58 1448.61,354.246 1496,294.5C 1526.01,260.413 1563.51,240.413 1608.5,234.5 Z M 1625.5,305.5 C 1673.79,307.573 1705.63,331.573 1721,377.5C 1732.59,419.322 1725.26,457.322 1699,491.5C 1669.29,521.634 1634.46,529.467 1594.5,515C 1553.41,494.36 1532.41,460.86 1531.5,414.5C 1532.39,368.857 1552.73,335.357 1592.5,314C 1603.27,309.726 1614.27,306.892 1625.5,305.5 Z"/></g>
<g><path style="opacity:0.988" fill="#ea4334" d="M 2103.5,234.5 C 2170.8,229.898 2222.3,255.898 2258,312.5C 2269.16,330.629 2277.33,349.796 2282.5,370C 2203.09,402.805 2123.75,435.805 2044.5,469C 2066.36,509.597 2100.36,526.931 2146.5,521C 2171.09,516.738 2191.59,505.238 2208,486.5C 2211.29,481.546 2214.95,476.88 2219,472.5C 2239.59,486.21 2260.09,500.043 2280.5,514C 2232.43,579.817 2168.1,604.817 2087.5,589C 2028.29,573.779 1987.12,537.946 1964,481.5C 1946.41,430.073 1948.41,379.406 1970,329.5C 1997.91,274.62 2042.41,242.953 2103.5,234.5 Z M 2115.5,304.5 C 2142.12,302.099 2164.62,310.433 2183,329.5C 2186.24,333.309 2188.4,337.642 2189.5,342.5C 2136.82,363.673 2084.32,385.34 2032,407.5C 2031.45,360.741 2052.62,328.241 2095.5,310C 2102.21,307.826 2108.87,305.993 2115.5,304.5 Z"/></g>
</svg>
