<?xml version="1.0" encoding="UTF-8"?>
<!DOCTYPE svg PUBLIC "-//W3C//DTD SVG 1.1//EN" "http://www.w3.org/Graphics/SVG/1.1/DTD/svg11.dtd">
<svg xmlns="http://www.w3.org/2000/svg" version="1.1" width="1200px" height="384px" style="shape-rendering:geometricPrecision; text-rendering:geometricPrecision; image-rendering:optimizeQuality; fill-rule:evenodd; clip-rule:evenodd" xmlns:xlink="http://www.w3.org/1999/xlink">
<g><path style="opacity:0.992" fill="#ee4d2c" d="M 147.5,-0.5 C 155.5,-0.5 163.5,-0.5 171.5,-0.5C 207.029,9.20203 228.862,32.202 237,68.5C 238.089,74.4719 238.923,80.4719 239.5,86.5C 265.169,86.3334 290.835,86.5 316.5,87C 318,87.8333 319.167,89 320,90.5C 316.799,172.527 312.799,254.527 308,336.5C 304.491,349.342 296.325,357.509 283.5,361C 200.167,361.667 116.833,361.667 33.5,361C 19.9235,356.756 12.0902,347.589 10,333.5C 6.73516,260.997 3.23516,188.663 -0.5,116.5C -0.5,107.5 -0.5,98.5 -0.5,89.5C 0.626561,88.8783 1.62656,88.045 2.5,87C 28.4979,86.5 54.4979,86.3334 80.5,86.5C 81.8317,50.6342 97.8317,23.8009 128.5,6C 134.846,3.49676 141.179,1.3301 147.5,-0.5 Z M 150.5,21.5 C 171.208,19.2732 188.042,26.2732 201,42.5C 210.825,55.4734 215.992,70.1401 216.5,86.5C 178.499,86.6667 140.499,86.5 102.5,86C 104.051,59.5396 116.051,39.5396 138.5,26C 142.571,24.3695 146.571,22.8695 150.5,21.5 Z M 147.5,132.5 C 168.581,130.854 188.248,135.354 206.5,146C 208.167,147 209.5,148.333 210.5,150C 208,153.833 205.5,157.667 203,161.5C 185.251,149.188 165.751,145.021 144.5,149C 122.753,157.258 116.92,171.758 127,192.5C 131.998,197.831 137.831,201.997 144.5,205C 161.887,210.363 178.554,217.363 194.5,226C 221.429,244.985 225.596,268.152 207,295.5C 191.966,309.511 174.133,315.344 153.5,313C 135.041,311.183 118.374,304.85 103.5,294C 101.773,292.611 100.439,290.944 99.5,289C 101.804,284.884 104.471,281.051 107.5,277.5C 120.067,287.782 134.4,294.282 150.5,297C 165.335,299.101 179.001,296.101 191.5,288C 206.599,271.437 205.599,255.77 188.5,241C 184.159,237.828 179.492,235.161 174.5,233C 158.319,227.831 142.653,221.498 127.5,214C 105.927,199.951 100.093,181.118 110,157.5C 119.121,144.028 131.621,135.694 147.5,132.5 Z"/></g>
<g><path style="opacity:0.974" fill="#ee4d2c" d="M 436.5,129.5 C 461.077,127.269 483.577,132.936 504,146.5C 504.758,150.329 503.758,153.662 501,156.5C 498.988,159.846 496.321,162.512 493,164.5C 482.001,157.833 470.168,153.333 457.5,151C 442.046,148.315 428.879,152.482 418,163.5C 409.766,175.936 411.266,187.103 422.5,197C 427.51,200.507 432.843,203.507 438.5,206C 455.833,211 472.5,217.666 488.5,226C 512.825,240.634 520.325,261.467 511,288.5C 500.522,309.515 483.355,320.682 459.5,322C 431.882,323.571 407.382,315.737 386,298.5C 385.833,297.667 385.667,296.833 385.5,296C 387.339,291.158 389.839,286.658 393,282.5C 393.956,281.106 395.289,280.439 397,280.5C 402.315,282.474 407.148,285.308 411.5,289C 430.812,300.833 451.145,303.166 472.5,296C 489.263,288.976 495.096,276.81 490,259.5C 484.669,250.502 477.169,244.002 467.5,240C 449.055,234.109 431.055,227.109 413.5,219C 392.113,205.053 385.28,185.886 393,161.5C 402.047,143.396 416.547,132.729 436.5,129.5 Z"/></g>
<g><path style="opacity:0.972" fill="#ee4d2d" d="M 534.5,129.5 C 541.948,128.892 549.115,129.559 556,131.5C 556.333,158.5 556.667,185.5 557,212.5C 580.466,197.624 603.633,198.124 626.5,214C 638.138,223.44 644.971,235.606 647,250.5C 647.827,274.406 647.66,298.239 646.5,322C 639.586,322.811 632.752,322.645 626,321.5C 625.667,300.167 625.333,278.833 625,257.5C 622.302,237.302 610.802,225.969 590.5,223.5C 573.203,224.97 562.036,233.97 557,250.5C 556.667,273.833 556.333,297.167 556,320.5C 555.5,321 555,321.5 554.5,322C 548.167,322.667 541.833,322.667 535.5,322C 535,321.5 534.5,321 534,320.5C 533.171,256.763 533.337,193.096 534.5,129.5 Z"/></g>
<g><path style="opacity:0.975" fill="#ee4d2c" d="M 717.5,200.5 C 758.523,199.86 781.523,219.86 786.5,260.5C 782.636,297.53 762.136,317.53 725,320.5C 692.423,318.254 672.423,301.254 665,269.5C 663.092,231.59 680.592,208.59 717.5,200.5 Z M 716.5,222.5 C 744.305,220.389 760.305,233.056 764.5,260.5C 762.903,278.598 753.57,290.764 736.5,297C 713.255,301.711 697.088,293.211 688,271.5C 683.59,246.978 693.09,230.645 716.5,222.5 Z"/></g>
<g><path style="opacity:0.981" fill="#ee4d2d" d="M 827.5,383.5 C 820.5,383.5 813.5,383.5 806.5,383.5C 806.5,322.833 806.5,262.167 806.5,201.5C 813.5,200.167 820.5,200.167 827.5,201.5C 827.334,205.846 827.501,210.179 828,214.5C 854.846,195.778 881.346,196.278 907.5,216C 930.066,239.518 933.566,265.685 918,294.5C 898.421,320.028 873.254,327.528 842.5,317C 837.667,314.418 833,311.585 828.5,308.5C 827.5,333.491 827.167,358.491 827.5,383.5 Z M 862.5,222.5 C 884.866,222.375 899.032,233.041 905,254.5C 906.805,277.057 896.972,291.891 875.5,299C 852.315,301.832 836.815,292.332 829,270.5C 825.867,253.232 831.367,239.399 845.5,229C 850.888,225.752 856.554,223.585 862.5,222.5 Z"/></g>
<g><path style="opacity:0.978" fill="#ee4d2c" d="M 997.5,200.5 C 1031.29,199.479 1052.79,215.146 1062,247.5C 1063.26,252.787 1063.6,258.12 1063,263.5C 1062.17,265.667 1060.67,267.167 1058.5,268C 1029.17,268.5 999.835,268.667 970.5,268.5C 974.762,284.593 985.096,294.427 1001.5,298C 1019.56,300.977 1035.39,296.477 1049,284.5C 1050.4,284.78 1051.56,285.447 1052.5,286.5C 1054.14,289.304 1055.97,291.971 1058,294.5C 1059.88,296.914 1060.55,299.581 1060,302.5C 1048.31,313.181 1034.48,319.014 1018.5,320C 988.063,322.538 965.896,310.371 952,283.5C 941.354,250.093 950.854,224.26 980.5,206C 986.137,203.682 991.803,201.849 997.5,200.5 Z M 997.5,222.5 C 1017.07,220.281 1031.07,227.948 1039.5,245.5C 1016.84,246.666 994.174,246.833 971.5,246C 976.279,233.714 984.946,225.881 997.5,222.5 Z"/></g>
<g><path style="opacity:0.979" fill="#ee4d2c" d="M 1199.5,249.5 C 1199.5,254.833 1199.5,260.167 1199.5,265.5C 1198.32,266.504 1196.98,267.338 1195.5,268C 1165.83,268.333 1136.17,268.667 1106.5,269C 1115.77,292.646 1133.11,302.313 1158.5,298C 1168.54,296.313 1177.21,291.979 1184.5,285C 1186.9,284.37 1188.74,285.203 1190,287.5C 1193.01,291.506 1195.51,295.84 1197.5,300.5C 1196.75,302.753 1195.41,304.587 1193.5,306C 1167.94,322.684 1141.28,324.684 1113.5,312C 1087.34,293.857 1078.84,269.357 1088,238.5C 1101.06,209.216 1123.56,197.049 1155.5,202C 1179.41,209.357 1194.08,225.19 1199.5,249.5 Z M 1141.5,221.5 C 1157.68,223.173 1169.35,231.339 1176.5,246C 1153.83,246.833 1131.16,246.666 1108.5,245.5C 1114.82,230.86 1125.82,222.86 1141.5,221.5 Z"/></g>
</svg>
