<?xml version="1.0" encoding="UTF-8"?>
<!DOCTYPE svg PUBLIC "-//W3C//DTD SVG 1.1//EN" "http://www.w3.org/Graphics/SVG/1.1/DTD/svg11.dtd">
<svg xmlns="http://www.w3.org/2000/svg" version="1.1" width="2560px" height="557px" style="shape-rendering:geometricPrecision; text-rendering:geometricPrecision; image-rendering:optimizeQuality; fill-rule:evenodd; clip-rule:evenodd" xmlns:xlink="http://www.w3.org/1999/xlink">
<g><path style="opacity:0.992" fill="#42b449" d="M 2054.5,1.5 C 2057.5,1.5 2060.5,1.5 2063.5,1.5C 2063.67,97.8339 2063.5,194.167 2063,290.5C 2058.85,348.246 2031.68,391.079 1981.5,419C 1936.17,437.936 1890.84,437.603 1845.5,418C 1800.63,392.826 1774.13,354.659 1766,303.5C 1757.99,255.217 1769.33,212.217 1800,174.5C 1839.9,133.429 1888.07,118.929 1944.5,131C 1960.62,134.762 1975.95,140.595 1990.5,148.5C 1990.83,159.5 1991.17,170.5 1991.5,181.5C 1991.66,192.986 1991.16,204.319 1990,215.5C 1967.31,197.989 1941.64,188.323 1913,186.5C 1862.93,188.895 1833.93,214.895 1826,264.5C 1821.59,298.407 1831.09,327.574 1854.5,352C 1881.52,373.393 1911.52,379.059 1944.5,369C 1965.86,360.312 1981.36,345.479 1991,324.5C 1996.21,312.332 1999.54,299.665 2001,286.5C 2001.99,205.821 2002.99,125.154 2004,44.5C 2011.85,19.474 2028.68,5.14069 2054.5,1.5 Z"/></g>
<g><path style="opacity:0.989" fill="#42b548" d="M 576.5,1.5 C 579.5,1.5 582.5,1.5 585.5,1.5C 585.5,80.5 585.5,159.5 585.5,238.5C 595.883,238.838 606.216,238.338 616.5,237C 628.305,234.517 637.138,228.017 643,217.5C 659.122,189.419 675.622,161.586 692.5,134C 715.833,133.333 739.167,133.333 762.5,134C 745.126,163.916 727.626,193.749 710,223.5C 703.299,233.874 695.466,243.374 686.5,252C 711.933,260.433 729.099,277.266 738,302.5C 740.106,309.694 741.439,317.028 742,324.5C 742.5,358.832 742.667,393.165 742.5,427.5C 709.825,427.098 689.658,411.098 682,379.5C 681.869,363.136 681.203,346.802 680,330.5C 676.9,313.068 666.734,302.568 649.5,299C 628.195,297.624 606.861,297.124 585.5,297.5C 585.5,340.833 585.5,384.167 585.5,427.5C 558.973,427.664 539.807,415.997 528,392.5C 525.719,386.71 524.386,380.71 524,374.5C 523.017,265.144 523.35,155.811 525,46.5C 532.136,19.8553 549.303,4.85533 576.5,1.5 Z"/></g>
<g><path style="opacity:0.986" fill="#42b549" d="M 2159.5,37.5 C 2189.76,37.3539 2203.59,52.3539 2201,82.5C 2198.38,94.9335 2191.22,103.434 2179.5,108C 2147.99,114.135 2131.49,101.302 2130,69.5C 2132.44,51.8987 2142.27,41.232 2159.5,37.5 Z"/></g>
<g><path style="opacity:0.989" fill="#42b449" d="M -0.5,347.5 C -0.5,267.167 -0.5,186.833 -0.5,106.5C 8.20849,75.9592 28.5418,60.6259 60.5,60.5C 60.5,84.8333 60.5,109.167 60.5,133.5C 94.5,133.5 128.5,133.5 162.5,133.5C 162.5,153.167 162.5,172.833 162.5,192.5C 128.5,192.5 94.5,192.5 60.5,192.5C 60.3333,243.501 60.5,294.501 61,345.5C 62.714,357.547 69.5473,364.714 81.5,367C 108.472,368.416 135.472,368.916 162.5,368.5C 162.5,388.167 162.5,407.833 162.5,427.5C 132.147,427.879 101.814,427.379 71.5,426C 40.5799,421.638 19.0799,405.138 7,376.5C 3.68558,366.905 1.18558,357.238 -0.5,347.5 Z"/></g>
<g><path style="opacity:0.992" fill="#42b549" d="M 1573.5,126.5 C 1626.58,124.299 1671.08,142.633 1707,181.5C 1725.63,204.121 1736.63,230.121 1740,259.5C 1741.25,273.137 1741.75,286.804 1741.5,300.5C 1660.5,300.5 1579.5,300.5 1498.5,300.5C 1502.61,325.887 1515.61,345.387 1537.5,359C 1573.2,382.416 1607.53,380.75 1640.5,354C 1649.39,346.067 1657.72,337.567 1665.5,328.5C 1681.68,339.755 1697.68,351.255 1713.5,363C 1715.21,364.133 1715.71,365.633 1715,367.5C 1687.97,412.782 1647.8,435.449 1594.5,435.5C 1544.48,433.571 1502.65,414.237 1469,377.5C 1427.98,322.027 1423.64,263.693 1456,202.5C 1482.99,158.417 1522.16,133.083 1573.5,126.5 Z M 1580.5,185.5 C 1612.34,184.68 1638.84,196.013 1660,219.5C 1665.46,227.087 1669.29,235.42 1671.5,244.5C 1616.83,244.833 1562.16,244.5 1507.5,243.5C 1521.98,211.464 1546.32,192.13 1580.5,185.5 Z"/></g>
<g><path style="opacity:0.992" fill="#42b549" d="M 314.5,127.5 C 380.936,123.297 431.436,149.297 466,205.5C 484.774,243.947 488.774,283.947 478,325.5C 465.96,365.202 441.794,395.035 405.5,415C 370.132,432.863 333.132,437.529 294.5,429C 244.469,415.635 209.302,385.135 189,337.5C 170.786,283.198 177.786,232.531 210,185.5C 237.038,152.229 271.871,132.895 314.5,127.5 Z M 319.5,186.5 C 357.346,183.03 386.513,197.03 407,228.5C 420.453,255.424 423.119,283.424 415,312.5C 401.228,352.253 373.228,372.919 331,374.5C 290.875,373.016 263.542,353.682 249,316.5C 237.929,281.652 242.262,248.985 262,218.5C 277.045,200.395 296.211,189.728 319.5,186.5 Z"/></g>
<g><path style="opacity:0.991" fill="#42b549" d="M 908.5,127.5 C 974.936,123.297 1025.44,149.297 1060,205.5C 1078.74,243.956 1082.74,283.956 1072,325.5C 1059.96,365.202 1035.79,395.035 999.5,415C 964.132,432.863 927.132,437.529 888.5,429C 839.696,416.012 804.862,386.512 784,340.5C 767.101,292.335 770.434,245.669 794,200.5C 820.545,158.133 858.712,133.8 908.5,127.5 Z M 913.5,186.5 C 960.687,183.244 992.52,203.577 1009,247.5C 1018.9,282.726 1013.23,315.06 992,344.5C 963.528,373.325 930.028,381.158 891.5,368C 862.448,355.112 844.948,332.946 839,301.5C 833.064,269.499 839.731,240.499 859,214.5C 873.741,198.38 891.908,189.047 913.5,186.5 Z"/></g>
<g><path style="opacity:0.993" fill="#42b549" d="M 1241.5,127.5 C 1308.27,121.633 1358.44,147.3 1392,204.5C 1410.64,243.525 1415.3,284.192 1406,326.5C 1390.9,375.933 1359.07,409.433 1310.5,427C 1266.43,438.408 1224.43,433.242 1184.5,411.5C 1183.17,389.5 1183.17,367.5 1184.5,345.5C 1202.18,357.838 1221.51,366.672 1242.5,372C 1275.81,378.057 1304.31,369.223 1328,345.5C 1349.06,316.026 1354.73,283.693 1345,248.5C 1333.29,212.79 1308.79,192.29 1271.5,187C 1228.94,183.022 1199.11,200.522 1182,239.5C 1177.27,252.099 1174.27,265.099 1173,278.5C 1172.5,370.499 1172.33,462.499 1172.5,554.5C 1141.03,554.509 1120.86,539.509 1112,509.5C 1110.85,469.861 1110.35,430.194 1110.5,390.5C 1110.67,353.167 1110.83,315.833 1111,278.5C 1112.44,231.127 1130.27,191.294 1164.5,159C 1187.25,141.289 1212.92,130.789 1241.5,127.5 Z"/></g>
<g><path style="opacity:0.991" fill="#42b549" d="M 2559.5,246.5 C 2559.5,306.833 2559.5,367.167 2559.5,427.5C 2525.52,426.774 2505.35,409.774 2499,376.5C 2498.96,332.805 2498.3,289.138 2497,245.5C 2487.84,215.014 2467.68,196.18 2436.5,189C 2404.94,181.576 2376.6,187.91 2351.5,208C 2323.81,237.595 2315.31,272.095 2326,311.5C 2342.81,355.834 2374.98,376.334 2422.5,373C 2437.24,370.127 2450.24,363.794 2461.5,354C 2470.04,345.131 2478.2,335.964 2486,326.5C 2486.67,352.167 2486.67,377.833 2486,403.5C 2455.36,429.286 2420.2,438.453 2380.5,431C 2331.14,421.577 2295.97,394.077 2275,348.5C 2258.35,307.666 2256.02,265.999 2268,223.5C 2290.17,166.01 2332.01,134.177 2393.5,128C 2435.14,123.524 2473.47,132.524 2508.5,155C 2538.11,178.385 2555.11,208.885 2559.5,246.5 Z"/></g>
<g><path style="opacity:0.992" fill="#41b548" d="M 2135.5,133.5 C 2155.83,133.5 2176.17,133.5 2196.5,133.5C 2196.5,231.5 2196.5,329.5 2196.5,427.5C 2165.95,427.095 2146.12,412.429 2137,383.5C 2135.51,300.203 2135.01,216.87 2135.5,133.5 Z"/></g>
</svg>
