<?xml version="1.0" encoding="UTF-8"?>
<!DOCTYPE svg PUBLIC "-//W3C//DTD SVG 1.1//EN" "http://www.w3.org/Graphics/SVG/1.1/DTD/svg11.dtd">
<svg xmlns="http://www.w3.org/2000/svg" version="1.1" width="512px" height="512px" style="shape-rendering:geometricPrecision; text-rendering:geometricPrecision; image-rendering:optimizeQuality; fill-rule:evenodd; clip-rule:evenodd" xmlns:xlink="http://www.w3.org/1999/xlink">
<g><path style="opacity:0.991" fill="#000000" d="M 186.5,42.5 C 202.004,41.5109 210.671,48.6776 212.5,64C 189.817,129.235 198.984,189.401 240,244.5C 286.033,296.412 343.533,317.245 412.5,307C 424.158,304.002 435.824,301.169 447.5,298.5C 463.215,300.052 470.382,308.719 469,324.5C 446.619,384.882 405.786,427.715 346.5,453C 272.759,480.458 202.759,473.125 136.5,431C 75.5324,386.242 44.1991,325.742 42.5,249.5C 44.5158,166.259 80.5158,102.759 150.5,59C 162.181,52.6571 174.181,47.1571 186.5,42.5 Z"/></g>
</svg>
