<?xml version="1.0" encoding="UTF-8"?>
<!DOCTYPE svg PUBLIC "-//W3C//DTD SVG 1.1//EN" "http://www.w3.org/Graphics/SVG/1.1/DTD/svg11.dtd">
<svg xmlns="http://www.w3.org/2000/svg" version="1.1" width="225px" height="225px" style="shape-rendering:geometricPrecision; text-rendering:geometricPrecision; image-rendering:optimizeQuality; fill-rule:evenodd; clip-rule:evenodd" xmlns:xlink="http://www.w3.org/1999/xlink">
<g><path style="opacity:1" fill="#fefefe" d="M -0.5,-0.5 C 74.5,-0.5 149.5,-0.5 224.5,-0.5C 224.5,74.5 224.5,149.5 224.5,224.5C 149.5,224.5 74.5,224.5 -0.5,224.5C -0.5,149.5 -0.5,74.5 -0.5,-0.5 Z"/></g>
<g><path style="opacity:1" fill="#010101" d="M 110.5,17.5 C 113.238,16.9648 115.072,17.9648 116,20.5C 116.667,30.5 116.667,40.5 116,50.5C 113.333,54.5 110.667,54.5 108,50.5C 107.333,40.5 107.333,30.5 108,20.5C 108.698,19.3094 109.531,18.3094 110.5,17.5 Z"/></g>
<g><path style="opacity:1" fill="#e6e6e6" d="M 32.5,23.5 C 37.3525,23.5023 39.3525,25.6689 38.5,30C 44.6655,29.9894 46.6655,32.8227 44.5,38.5C 42.8849,39.154 41.2182,39.654 39.5,40C 40.5171,41.0495 40.6838,42.2161 40,43.5C 38.3163,45.3513 36.4829,47.018 34.5,48.5C 29.6815,44.1819 25.0148,39.6819 20.5,35C 22.5,33 24.5,31 26.5,29C 27.4491,28.3828 28.2825,28.5494 29,29.5C 29.4238,26.9746 30.5905,24.9746 32.5,23.5 Z"/></g>
<g><path style="opacity:1" fill="#e7e7e7" d="M 187.5,23.5 C 192.5,23.1667 194.833,25.5 194.5,30.5C 200.992,30.6582 202.658,33.4916 199.5,39C 197.833,39.3333 196.167,39.6667 194.5,40C 195.167,40.6667 195.833,41.3333 196.5,42C 194.273,44.9349 191.606,46.9349 188.5,48C 184.119,43.9552 180.119,39.6219 176.5,35C 177.776,32.7194 179.443,30.7194 181.5,29C 182.449,28.3828 183.282,28.5494 184,29.5C 184.424,26.9746 185.59,24.9746 187.5,23.5 Z"/></g>
<g><path style="opacity:1" fill="#141414" d="M 71.5,66.5 C 63.8647,60.3901 56.3647,53.3901 49,45.5C 48.8333,45.8333 48.6667,46.1667 48.5,46.5C 55.8543,54.521 63.521,62.1877 71.5,69.5C 69.8233,72.7772 67.4899,73.2772 64.5,71C 56.7493,63.9206 49.7493,56.2539 43.5,48C 44.9746,43.6209 47.6413,42.6209 51.5,45C 58.7611,51.7558 65.4278,58.9225 71.5,66.5 Z"/></g>
<g><path style="opacity:1" fill="#111111" d="M 178.5,51.5 C 177.402,50.603 177.402,49.7697 178.5,49C 177.833,48.3333 177.167,48.3333 176.5,49C 168.964,56.3684 161.631,63.8684 154.5,71.5C 151.223,69.8233 150.723,67.4899 153,64.5C 160.079,56.7493 167.746,49.7493 176,43.5C 180.632,45.2177 181.465,47.8844 178.5,51.5 Z"/></g>
<g><path style="opacity:1" fill="#3b3b3b" d="M 71.5,66.5 C 72.8333,67.5 72.8333,68.5 71.5,69.5C 63.521,62.1877 55.8543,54.521 48.5,46.5C 48.6667,46.1667 48.8333,45.8333 49,45.5C 56.3647,53.3901 63.8647,60.3901 71.5,66.5 Z"/></g>
<g><path style="opacity:1" fill="#232323" d="M 178.5,51.5 C 171.788,59.3803 164.288,66.3803 156,72.5C 155.235,72.4301 154.735,72.0967 154.5,71.5C 161.631,63.8684 168.964,56.3684 176.5,49C 177.167,48.3333 177.833,48.3333 178.5,49C 177.402,49.7697 177.402,50.603 178.5,51.5 Z"/></g>
<g><path style="opacity:1" fill="#060606" d="M 80.5,80.5 C 83.5,81.5 85.5,83.5 86.5,86.5C 72.4462,102.647 71.9462,119.314 85,136.5C 105.287,153.535 124.287,152.201 142,132.5C 151.61,116.206 150.276,100.873 138,86.5C 121.957,72.7758 105.457,72.1092 88.5,84.5C 86.1667,82.8333 84.1667,80.8333 82.5,78.5C 102.512,63.8832 122.512,64.0499 142.5,79C 155.122,91.7475 159.289,106.914 155,124.5C 145.202,150.155 126.702,160.321 99.5,155C 79.1282,147.935 68.4616,133.601 67.5,112C 67.2764,99.4775 71.6097,88.9775 80.5,80.5 Z"/></g>
<g><path style="opacity:1" fill="#424242" d="M 82.5,78.5 C 84.1667,80.8333 86.1667,82.8333 88.5,84.5C 88.1667,85.5 87.5,86.1667 86.5,86.5C 85.5,83.5 83.5,81.5 80.5,80.5C 80.8333,79.5 81.5,78.8333 82.5,78.5 Z"/></g>
<g><path style="opacity:1" fill="#f9f9f9" d="M 86.5,86.5 C 87.5,86.1667 88.1667,85.5 88.5,84.5C 105.457,72.1092 121.957,72.7758 138,86.5C 150.276,100.873 151.61,116.206 142,132.5C 124.287,152.201 105.287,153.535 85,136.5C 71.9462,119.314 72.4462,102.647 86.5,86.5 Z"/></g>
<g><path style="opacity:1" fill="#010101" d="M 19.5,107.5 C 29.8387,107.334 40.172,107.5 50.5,108C 54.5,110.667 54.5,113.333 50.5,116C 40.1667,116.667 29.8333,116.667 19.5,116C 16.8987,113.17 16.8987,110.337 19.5,107.5 Z"/></g>
<g><path style="opacity:1" fill="#010101" d="M 172.5,107.5 C 182.839,107.334 193.172,107.5 203.5,108C 207.5,110.667 207.5,113.333 203.5,116C 193.167,116.667 182.833,116.667 172.5,116C 169.899,113.17 169.899,110.337 172.5,107.5 Z"/></g>
<g><path style="opacity:1" fill="#0f0f0f" d="M 70.5,153.5 C 63.4263,162.078 55.7596,170.245 47.5,178C 48.7375,178.232 49.7375,178.732 50.5,179.5C 45.3977,180.903 43.2311,178.903 44,173.5C 50.8333,166.667 57.6667,159.833 64.5,153C 66.7116,152.211 68.7116,152.378 70.5,153.5 Z"/></g>
<g><path style="opacity:1" fill="#242424" d="M 154.5,152.5 C 156.199,152.34 157.866,152.506 159.5,153C 166.333,159.833 173.167,166.667 180,173.5C 180.765,175.066 180.598,176.399 179.5,177.5C 170.833,169.5 162.5,161.167 154.5,152.5 Z"/></g>
<g><path style="opacity:1" fill="#101010" d="M 154.5,152.5 C 162.5,161.167 170.833,169.5 179.5,177.5C 178.375,180.128 176.375,180.961 173.5,180C 166.667,173.167 159.833,166.333 153,159.5C 152.333,157.5 152.333,155.5 153,153.5C 153.383,152.944 153.883,152.611 154.5,152.5 Z"/></g>
<g><path style="opacity:1" fill="#232323" d="M 70.5,153.5 C 71.6225,155.288 71.7891,157.288 71,159.5C 64.2982,166.369 57.4649,173.036 50.5,179.5C 49.7375,178.732 48.7375,178.232 47.5,178C 55.7596,170.245 63.4263,162.078 70.5,153.5 Z"/></g>
<g><path style="opacity:1" fill="#010101" d="M 110.5,170.5 C 113.238,169.965 115.072,170.965 116,173.5C 116.667,183.5 116.667,193.5 116,203.5C 113.333,207.5 110.667,207.5 108,203.5C 107.333,193.5 107.333,183.5 108,173.5C 108.698,172.309 109.531,171.309 110.5,170.5 Z"/></g>
<g><path style="opacity:1" fill="#e6e6e6" d="M 32.5,178.5 C 37.1667,178.5 39.5,180.833 39.5,185.5C 44.9885,185.504 46.8219,188.171 45,193.5C 43.1746,194.103 41.3413,194.77 39.5,195.5C 40.3256,196.451 40.4922,197.451 40,198.5C 38.2599,200.954 36.0933,202.454 33.5,203C 29.3179,198.985 25.3179,194.818 21.5,190.5C 23.5,188.167 25.5,185.833 27.5,183.5C 28.086,183.709 28.586,184.043 29,184.5C 29.5637,182.113 30.7304,180.113 32.5,178.5 Z"/></g>
<g><path style="opacity:1" fill="#e6e6e6" d="M 187.5,178.5 C 192.167,178.5 194.5,180.833 194.5,185.5C 200.75,185.882 202.417,188.715 199.5,194C 197.833,194.333 196.167,194.667 194.5,195C 195.167,195.667 195.833,196.333 196.5,197C 194.273,199.935 191.606,201.935 188.5,203C 184.318,198.985 180.318,194.818 176.5,190.5C 178.5,188.167 180.5,185.833 182.5,183.5C 183.086,183.709 183.586,184.043 184,184.5C 184.564,182.113 185.73,180.113 187.5,178.5 Z"/></g>
</svg>
